<?xml version="1.0" encoding="utf-8"?>
<!-- Generator: Adobe Illustrator 16.0.1, SVG Export Plug-In . SVG Version: 6.00 Build 0)  -->
<!DOCTYPE svg PUBLIC "-//W3C//DTD SVG 1.0//EN" "http://www.w3.org/TR/2001/REC-SVG-20010904/DTD/svg10.dtd">
<svg version="1.0" id="_x32_d_1_" xmlns="http://www.w3.org/2000/svg" xmlns:xlink="http://www.w3.org/1999/xlink" x="0px" y="0px"
	 width="100px" height="100px" viewBox="0 0 100 100" enable-background="new 0 0 100 100" xml:space="preserve">
<g id="_x32_d">
	<g>
		<path fill-rule="evenodd" clip-rule="evenodd" fill="#D73737" d="M98.333,13.332c0.922,0,1.667-0.745,1.667-1.667V1.666
			c0-0.922-0.745-1.667-1.667-1.667h-9.999c-0.922,0-1.668,0.745-1.668,1.667v9.31L53.365,44.277
			c-0.537-0.317-1.117-0.563-1.735-0.719C50.885,22.646,34.018,5.78,13.108,5.035c-0.733-2.887-3.332-5.036-6.442-5.036
			C2.99-0.001,0,2.988,0,6.665s2.99,6.667,6.667,6.667c3.083,0,5.66-2.115,6.418-4.964c19.092,0.73,34.481,16.12,35.211,35.212
			c-2.848,0.759-4.963,3.334-4.963,6.419c0,1.233,0.36,2.375,0.945,3.365L10.977,86.665h-9.31C0.747,86.665,0,87.41,0,88.332v10
			c0,0.922,0.747,1.666,1.667,1.666h10c0.92,0,1.667-0.744,1.667-1.666v-9.311L46.635,55.72c0.905,0.535,1.938,0.86,3.052,0.914
			l-5.473,29.635c-0.133,0.724,0.222,1.448,0.875,1.784c0.242,0.124,0.503,0.184,0.763,0.184c0.442,0,0.876-0.174,1.198-0.508
			l8.925-9.23c7.236,9.955,18.629,16.012,30.916,16.455c0.728,2.892,3.328,5.045,6.442,5.045c3.677,0,6.667-2.989,6.667-6.667
			c0-3.676-2.99-6.666-6.667-6.666c-3.081,0-5.656,2.111-6.417,4.957c-10.885-0.42-21.003-5.639-27.64-14.252l12.784,3.659
			c0.703,0.195,1.461-0.086,1.859-0.702c0.398-0.618,0.344-1.424-0.133-1.983L54.076,55.235c1.564-1.222,2.59-3.102,2.59-5.236
			c0-1.233-0.359-2.375-0.944-3.367l33.302-33.3H98.333z"/>
	</g>
</g>
</svg>
