<?xml version="1.0" encoding="utf-8"?>
<!-- Generator: Adobe Illustrator 16.0.1, SVG Export Plug-In . SVG Version: 6.00 Build 0)  -->
<!DOCTYPE svg PUBLIC "-//W3C//DTD SVG 1.0//EN" "http://www.w3.org/TR/2001/REC-SVG-20010904/DTD/svg10.dtd">
<svg version="1.0" id="_x33_d_1_" xmlns="http://www.w3.org/2000/svg" xmlns:xlink="http://www.w3.org/1999/xlink" x="0px" y="0px"
	 width="100px" height="100px" viewBox="0 0 100 100" enable-background="new 0 0 100 100" xml:space="preserve">
<g id="_x33_d">
	<g>
		<path fill-rule="evenodd" clip-rule="evenodd" fill="#D73737" d="M98.602,86.877L81.227,76.643l0.021-31.969
			c0-0.021,0-0.021,0-0.043v-0.085c0-0.063,0-0.104-0.021-0.169v-0.085c0-0.084-0.021-0.147-0.041-0.211
			c0-0.021-0.021-0.063-0.021-0.084c-0.021-0.063-0.021-0.127-0.041-0.17c0-0.021-0.021-0.042-0.021-0.063
			c-0.021-0.085-0.063-0.148-0.082-0.233c0-0.021-0.021-0.042-0.021-0.063c-0.041-0.085-0.063-0.148-0.104-0.232
			c-0.042-0.064-0.084-0.148-0.125-0.212c-0.021-0.022-0.021-0.042-0.041-0.063c-0.042-0.063-0.104-0.127-0.146-0.19
			c-0.021-0.021-0.042-0.043-0.042-0.043c-0.041-0.042-0.082-0.084-0.124-0.127l-0.063-0.063c-0.062-0.043-0.104-0.105-0.166-0.148
			c-0.021-0.021-0.042-0.042-0.063-0.042c-0.042-0.021-0.083-0.063-0.124-0.085c-0.021-0.021-0.063-0.042-0.084-0.042l-0.02-0.021
			L52.6,26.13V5.853c0-1.585-1.245-2.854-2.802-2.854c-1.557,0-2.802,1.269-2.802,2.854v20.446L19.925,42.2l-0.021,0.021
			c-0.021,0.021-0.063,0.042-0.083,0.042c-0.042,0.021-0.083,0.063-0.125,0.085c-0.021,0.021-0.042,0.042-0.063,0.042
			c-0.062,0.043-0.104,0.085-0.166,0.148c-0.021,0.021-0.042,0.042-0.063,0.063c-0.042,0.043-0.083,0.085-0.124,0.127
			c-0.021,0.022-0.042,0.043-0.042,0.043c-0.042,0.063-0.104,0.127-0.145,0.19c-0.021,0.021-0.021,0.041-0.042,0.063
			c-0.104,0.147-0.187,0.296-0.249,0.444c0,0.021-0.021,0.042-0.021,0.063c-0.042,0.064-0.062,0.148-0.083,0.233
			c0,0.021-0.021,0.042-0.021,0.063c-0.021,0.063-0.042,0.127-0.042,0.17c0,0.021-0.021,0.063-0.021,0.084
			c-0.021,0.063-0.021,0.148-0.042,0.232v0.085c0,0.063,0,0.106-0.021,0.17v0.084c0,0.021,0,0.021,0,0.042l-0.021,32.202
			L1.409,86.961c-1.35,0.783-1.806,2.538-1.038,3.891c0.519,0.909,1.453,1.438,2.429,1.438c0.478,0,0.955-0.126,1.391-0.38
			l17.313-10.17l26.965,15.879c0,0,0.021,0,0.021,0.021c0.104,0.063,0.208,0.105,0.312,0.147h0.021
			c0.104,0.042,0.187,0.063,0.291,0.104c0.021,0,0.063,0.022,0.083,0.022c0.083,0.021,0.166,0.042,0.25,0.042
			c0.021,0,0.062,0,0.083,0.021c0.104,0.021,0.228,0.021,0.332,0.021c0.104,0,0.228,0,0.332-0.021c0.021,0,0.063,0,0.084-0.021
			c0.082-0.021,0.166-0.021,0.248-0.042c0.021,0,0.063-0.022,0.084-0.022c0.104-0.02,0.207-0.063,0.291-0.104h0.02
			c0.104-0.042,0.208-0.106,0.313-0.147c0,0,0.02,0,0.02-0.021l27.195-15.964L95.82,91.888c0.436,0.255,0.934,0.381,1.391,0.381
			c0.976,0,1.91-0.508,2.429-1.417C100.387,89.415,99.93,87.659,98.602,86.877z M47.037,90.154L24.077,76.621l0.021-27.021
			l22.959,13.531L47.037,90.154z M49.839,58.185L26.88,44.652l22.98-13.49l22.958,13.532L49.839,58.185z M75.621,76.643
			l-22.979,13.49l0.021-27.021l22.959-13.49V76.643z"/>
	</g>
</g>
</svg>
