<?xml version="1.0" encoding="utf-8"?>
<!-- Generator: Adobe Illustrator 16.0.1, SVG Export Plug-In . SVG Version: 6.00 Build 0)  -->
<!DOCTYPE svg PUBLIC "-//W3C//DTD SVG 1.0//EN" "http://www.w3.org/TR/2001/REC-SVG-20010904/DTD/svg10.dtd">
<svg version="1.0" id="location_1_" xmlns="http://www.w3.org/2000/svg" xmlns:xlink="http://www.w3.org/1999/xlink" x="0px"
	 y="0px" width="28px" height="28px" viewBox="0 0 28 28" enable-background="new 0 0 28 28" xml:space="preserve">
<g id="location">
	<g>
		<path fill-rule="evenodd" clip-rule="evenodd" fill="#D73737" d="M27.361,4.593c-0.426-0.397-0.931-0.595-1.514-0.595h-2.154v-1.5
			c0-0.688-0.264-1.275-0.791-1.765c-0.527-0.49-1.161-0.735-1.901-0.735h-1.077c-0.74,0-1.374,0.245-1.901,0.735
			c-0.528,0.489-0.791,1.077-0.791,1.765v1.5H10.77v-1.5c0-0.688-0.264-1.275-0.791-1.765c-0.527-0.49-1.162-0.735-1.902-0.735H7
			c-0.74,0-1.374,0.245-1.901,0.735C4.571,1.223,4.307,1.811,4.307,2.498v1.5H2.153c-0.583,0-1.088,0.197-1.515,0.595
			c-0.426,0.396-0.64,0.864-0.64,1.405v20.001c0,0.541,0.213,1.01,0.64,1.405c0.426,0.396,0.931,0.595,1.515,0.595h23.694
			c0.582,0,1.088-0.198,1.514-0.595c0.426-0.396,0.64-0.864,0.64-1.405V5.998C28.001,5.457,27.787,4.988,27.361,4.593z
			 M19.385,2.498c0-0.146,0.051-0.266,0.152-0.359c0.1-0.094,0.229-0.141,0.387-0.141H21c0.158,0,0.286,0.047,0.388,0.141
			c0.101,0.094,0.151,0.214,0.151,0.359v4.5c0,0.146-0.051,0.266-0.151,0.36c-0.102,0.093-0.229,0.14-0.388,0.14h-1.076
			c-0.158,0-0.287-0.047-0.387-0.14c-0.102-0.095-0.152-0.214-0.152-0.36V2.498z M6.461,2.498c0-0.146,0.05-0.266,0.151-0.359
			S6.843,1.998,7,1.998h1.077c0.157,0,0.286,0.047,0.387,0.141c0.101,0.094,0.151,0.214,0.151,0.359v4.5
			c0,0.146-0.05,0.266-0.151,0.36c-0.101,0.093-0.23,0.14-0.387,0.14H7c-0.157,0-0.286-0.047-0.387-0.14
			c-0.101-0.095-0.151-0.214-0.151-0.36V2.498z M25.848,25.998H2.153v-16h23.694V25.998z"/>
	</g>
</g>
</svg>
