<?xml version="1.0" encoding="utf-8"?>
<!-- Generator: Adobe Illustrator 16.0.1, SVG Export Plug-In . SVG Version: 6.00 Build 0)  -->
<!DOCTYPE svg PUBLIC "-//W3C//DTD SVG 1.0//EN" "http://www.w3.org/TR/2001/REC-SVG-20010904/DTD/svg10.dtd">
<svg version="1.0" id="email_1_" xmlns="http://www.w3.org/2000/svg" xmlns:xlink="http://www.w3.org/1999/xlink" x="0px" y="0px"
	 width="28px" height="28px" viewBox="0 0 28 28" enable-background="new 0 0 28 28" xml:space="preserve">
<g id="email">
	<g>
		<path fill-rule="evenodd" clip-rule="evenodd" fill="#D73737" d="M27.367,4.541c-0.359-0.336-0.844-0.542-1.381-0.542H2.014
			c-0.533,0-1.018,0.208-1.378,0.546L14,15.999L27.367,4.541z M0,5.755V22.37l9.666-8.213L0,5.755z M14,18l-3.464-3.033
			l-9.904,8.489c0.36,0.336,0.846,0.543,1.382,0.543h23.973c0.533,0,1.018-0.207,1.377-0.543l-9.898-8.489L14,18z M18.334,14.157
			L28,22.37V5.749L18.334,14.157z"/>
	</g>
</g>
</svg>
