<?xml version="1.0" encoding="utf-8"?>
<!-- Generator: Adobe Illustrator 16.0.1, SVG Export Plug-In . SVG Version: 6.00 Build 0)  -->
<!DOCTYPE svg PUBLIC "-//W3C//DTD SVG 1.0//EN" "http://www.w3.org/TR/2001/REC-SVG-20010904/DTD/svg10.dtd">
<svg version="1.0" id="mobile_1_" xmlns="http://www.w3.org/2000/svg" xmlns:xlink="http://www.w3.org/1999/xlink" x="0px" y="0px"
	 width="100px" height="100px" viewBox="0 0 100 100" enable-background="new 0 0 100 100" xml:space="preserve">
<g id="mobile">
	<g>
		<path fill-rule="evenodd" clip-rule="evenodd" fill="#D73737" d="M72.258-0.001H27.741c-3.709,0-6.744,3.037-6.744,6.755v86.487
			c0,3.716,3.035,6.758,6.744,6.758h44.517c3.709,0,6.745-3.036,6.745-6.756V6.754C79.003,3.036,75.967-0.001,72.258-0.001z
			 M42.878,4.867h14.243c0.451,0,0.816,0.365,0.816,0.82c0,0.451-0.365,0.816-0.816,0.816H42.878c-0.45,0-0.816-0.365-0.816-0.816
			C42.063,5.232,42.429,4.867,42.878,4.867z M50,96.623c-1.862,0-3.373-1.513-3.373-3.38c0-1.866,1.51-3.376,3.373-3.376
			c1.861,0,3.371,1.51,3.371,3.376C53.371,95.11,51.861,96.623,50,96.623z M74.312,87.499H25.69V10.71h48.622V87.499z"/>
	</g>
</g>
</svg>
