<?xml version="1.0" encoding="utf-8"?>
<!-- Generator: Adobe Illustrator 16.0.1, SVG Export Plug-In . SVG Version: 6.00 Build 0)  -->
<!DOCTYPE svg PUBLIC "-//W3C//DTD SVG 1.0//EN" "http://www.w3.org/TR/2001/REC-SVG-20010904/DTD/svg10.dtd">
<svg version="1.0" id="phone_1_" xmlns="http://www.w3.org/2000/svg" xmlns:xlink="http://www.w3.org/1999/xlink" x="0px" y="0px"
	 width="28px" height="28px" viewBox="0 0 28 28" enable-background="new 0 0 28 28" xml:space="preserve">
<g id="phone">
	<g>
		<path fill-rule="evenodd" clip-rule="evenodd" fill="#D73737" d="M27.986,22.097c-0.079-0.396-0.326-0.723-0.742-0.979
			l-5.722-3.382h-0.03c-0.197-0.118-0.464-0.178-0.8-0.178c-0.475,0-0.89,0.158-1.245,0.475l-1.689,1.72
			c-0.04,0.04-0.104,0.074-0.193,0.104c-0.089,0.03-0.153,0.045-0.193,0.045l-0.37-0.074c-0.247-0.049-0.603-0.192-1.067-0.43
			s-1.043-0.608-1.734-1.112c-0.692-0.505-1.482-1.211-2.372-2.121c-0.909-0.89-1.611-1.676-2.105-2.358
			c-0.494-0.682-0.86-1.26-1.097-1.734c-0.277-0.534-0.455-1.009-0.534-1.424c0-0.06,0.015-0.134,0.044-0.223
			c0.03-0.089,0.064-0.153,0.104-0.192l1.453-1.454c0.257-0.256,0.425-0.573,0.504-0.948c0.079-0.376,0.029-0.723-0.148-1.039
			L6.876,0.771c-0.139-0.218-0.307-0.4-0.504-0.549C6.174,0.073,5.947-0.001,5.69-0.001c-0.356,0-0.672,0.139-0.949,0.415
			L0.798,4.359C0.6,4.537,0.432,4.77,0.294,5.057C0.155,5.343,0.066,5.625,0.027,5.901c0,0.04-0.01,0.237-0.03,0.594
			c-0.02,0.355,0.02,0.845,0.119,1.468c0.099,0.623,0.287,1.364,0.563,2.225s0.692,1.819,1.245,2.877
			c0.554,1.058,1.285,2.21,2.194,3.456c0.909,1.245,2.056,2.551,3.439,3.915c1.74,1.76,3.38,3.145,4.922,4.152
			c1.542,1.009,2.921,1.765,4.136,2.27c1.216,0.504,2.244,0.82,3.084,0.949c0.84,0.128,1.447,0.192,1.823,0.192
			c0.158,0,0.286-0.005,0.386-0.015c0.099-0.01,0.158-0.015,0.178-0.015c0.277-0.04,0.559-0.129,0.846-0.268
			c0.286-0.138,0.518-0.307,0.696-0.504l3.942-3.915C27.907,22.946,28.045,22.552,27.986,22.097z"/>
	</g>
</g>
</svg>
