<?xml version="1.0" encoding="utf-8"?>
<!-- Generator: Adobe Illustrator 16.0.1, SVG Export Plug-In . SVG Version: 6.00 Build 0)  -->
<!DOCTYPE svg PUBLIC "-//W3C//DTD SVG 1.0//EN" "http://www.w3.org/TR/2001/REC-SVG-20010904/DTD/svg10.dtd">
<svg version="1.0" id="web_1_" xmlns="http://www.w3.org/2000/svg" xmlns:xlink="http://www.w3.org/1999/xlink" x="0px" y="0px"
	 width="100px" height="100px" viewBox="0 0 100 100" enable-background="new 0 0 100 100" xml:space="preserve">
<g id="web">
	<g>
		<path fill-rule="evenodd" clip-rule="evenodd" fill="#D73737" d="M95.879,30.185c-0.09-0.206-0.18-0.412-0.271-0.617
			c-0.029-0.066-0.061-0.134-0.091-0.2C90.959,19.322,83.244,11.205,73.81,6.071c-0.017-0.009-0.032-0.017-0.048-0.026
			c-0.309-0.168-0.619-0.332-0.931-0.492c-0.054-0.028-0.106-0.057-0.16-0.083c-0.294-0.151-0.589-0.299-0.886-0.443
			c-0.262-0.127-0.525-0.251-0.789-0.374c-0.083-0.038-0.166-0.078-0.248-0.116c-0.268-0.123-0.536-0.242-0.806-0.36
			C69.9,4.158,69.859,4.14,69.817,4.121c-3.656-1.592-7.536-2.759-11.577-3.435c-0.003-0.001-0.007-0.002-0.011-0.002
			c-0.334-0.056-0.669-0.109-1.005-0.158c-0.002,0-0.004,0-0.005-0.001c-0.897-0.132-1.802-0.237-2.714-0.32
			c-0.151-0.014-0.303-0.028-0.454-0.04c-0.198-0.016-0.396-0.03-0.595-0.044c-0.203-0.015-0.405-0.027-0.608-0.04
			c-0.173-0.01-0.347-0.018-0.52-0.026c-0.246-0.011-0.493-0.02-0.739-0.028c-0.139-0.004-0.277-0.01-0.417-0.013
			C50.783,0.005,50.392-0.001,50-0.001c-5.452,0-10.69,0.851-15.717,2.548C21.717,6.74,11.33,15.809,5.394,27.48
			C5.241,27.574,5.105,27.692,5,27.832c-0.215,0.288-0.307,0.667-0.288,1.047C1.693,35.303,0,42.462,0,49.999
			c0,21.114,13.265,39.279,31.873,46.578c0.143,0.115,0.301,0.201,0.46,0.255c1.265,0.445,2.547,0.849,3.842,1.208
			c4.04,1.171,8.286,1.843,12.667,1.944c0.386,0.009,0.772,0.015,1.159,0.015c0.401,0,0.803-0.007,1.204-0.016
			c0.044-0.002,0.087-0.002,0.131-0.004c3.722-0.095,7.443-0.588,11.165-1.48c0.131-0.044,0.262-0.112,0.387-0.198
			C84.193,92.58,100,73.047,100,49.999C100,42.97,98.527,36.269,95.879,30.185z M95.075,37.946C95,38.878,95,40.055,95,41.332
			c0,1.666,0,4.333-0.334,5.833c-0.166-0.167-0.166-0.167-0.333-0.334c-1.5-1.999-3.833-4.499-6.333-3.833
			c-2.834,0.667-3.334,4.667-3.834,8.167c-0.166,0.834-0.333,2-0.5,2.334c-1.333,1.999-2.833,2.999-5,2.999
			c-3.758,0-7.955-3.088-10.247-6.226c1.704-3.368,3.335-6.85,4.888-10.44c0.545,0.109,1.111,0.166,1.693,0.166
			c4.666,0,8.333-3.665,8.333-8.333c0-2.939-1.456-5.482-3.7-6.961c1.303-3.471,2.219-6.271,2.816-8.161
			C88.418,22.336,92.855,29.698,95.075,37.946z M70,31.665c0-2.833,2.166-5,5-5c2.833,0,5,2.167,5,5c0,2.834-2.167,5-5,5
			C72.166,36.665,70,34.499,70,31.665z M67.86,6.907c4.302,1.797,8.282,4.219,11.825,7.154c-0.475,1.687-1.504,5.015-3.184,9.402
			c-0.486-0.085-0.988-0.133-1.502-0.133c-4.666,0-8.334,3.668-8.334,8.334c0,2.899,1.416,5.412,3.607,6.899
			c-1.099,2.511-2.236,4.961-3.41,7.352c-0.258-0.941-0.656-1.84-1.697-2.418c-0.5-0.166-1-0.333-1.666-0.333
			c-1,0-2.334,0.5-4.5,1.167c-0.5,0.166-0.834,0.333-1.167,0.5c-0.167-1-0.833-2.334-2.667-3c-1-0.334-1.666-0.167-2.166,0
			c-1.166,0.5-1.5,1.666-1.834,2.666c0,0.167,0,0.167,0,0.334c-0.666-0.5-1-1.334-1.333-2.167c-0.833-2.333-2.167-4.667-7.167-3.5
			c-1.5,0.333-2.5,0.501-3.167,0.666c1.333-2.166,3.667-5.999,1.833-10.332c0-0.168,0-0.168,0-0.168c1,0.334,2.5,1,3.5,1.501
			c3.667,1.666,6,2.667,7.667,1.999c2-0.666,3.334-2.332,3.834-4.499c0.5-2.334,0-4.667-1.5-6.333
			C54,20.998,53.167,20.998,52.5,20.998c0,0-0.166,0-0.334,0c0.667-0.666,1.334-1.166,2-1.5c1.168-0.5,2.334-0.333,3.334,0.667
			c1.334,1.333,3,1.666,4.666,1.167c3.334-1,5.668-5.501,6.168-9.167C68.66,10.039,68.345,8.234,67.86,6.907z M49,28.832
			c1.833-0.167,2.833-2,3.5-3.334c0.166-0.333,0.333-0.5,0.5-0.833c0.5,0.833,0.5,1.833,0.333,2.834
			c-0.167,0.5-0.5,1.832-1.667,2.166C51.333,29.665,50.166,29.331,49,28.832z M41.667,7.165c0.333-1.334,0.167-2.166,0-3
			c6.5-1,13.333-0.834,19.667,0.834c-0.833,0.333-2,0.832-3.333,1.332c-2,0.834-4.5,1.835-5.5,1.835
			c-4.333,0-7.5,2.499-10.333,4.666c-3.167,2.5-6.167,4.667-10.5,3.5c0.5-1,1.833-1.834,3.667-2.834
			C38,12.165,41,10.498,41.667,7.165z M28.352,8.694c-0.319,0.91-0.519,1.624-0.519,2.138c0,0.666,0.5,1.333,1.333,1.5
			c0.833,0.166,1.167-0.333,2.167-1.167c4.5-4.167,6.5-5.334,7.333-5.666c0,0.167-0.167,0.5-0.167,0.833
			c-0.333,1.834-2.5,2.834-4.667,4c-2.667,1.5-6.167,3.334-5.833,7.167c0,0.666,0.333,1.333,1,1.5
			c6.833,2.666,11.167-0.668,15-3.667c2.833-2.167,5.167-4,8.5-4c1.833,0,4.166-1,6.833-2.166c1.333-0.668,3.5-1.501,4.333-1.667
			c1.334,1.166,1.334,3,1.167,4.167c-0.333,3.166-2.333,6-3.833,6.499c-0.334,0.166-0.666,0.166-1.167-0.333
			c-2-1.834-4.5-2.5-7-1.334c-3.667,1.667-6.167,6.167-6,10.833c0,0.334,0.167,0.501,0.333,0.834
			c-0.333-0.166-0.5-0.166-0.833-0.333C42.667,26.165,40,24.998,38.5,26.498c-1.333,1.501-0.5,3.501-0.167,4.334
			c1.167,2.833-0.333,5.333-1.5,7.333c-1,1.501-1.833,2.833-0.833,4.167c1,1.5,3.167,1.334,7.667,0.167
			c2.667-0.501,2.667-0.167,3.333,1.5c0.333,1.165,0.833,2.499,2.333,3.666c0.333,0.334,1.667,1.333,3.167,0.834
			c1.5-0.5,1.833-1.833,2.166-2.834c0.167-0.167,0.167-0.167,0.167-0.333C55,45.332,55,45.665,55,45.998
			c0.166,0.5,0.166,1.667,1.166,2.167c1.167,0.666,2.334,0.167,4.667-0.833c1.667-0.834,2.5-0.834,2.667-0.834
			c0.166,0.333,0.333,0.834,0.333,1.333c0.116,0.818,0.316,1.719,0.712,2.643c-2.123,4.032-4.348,7.885-6.656,11.559
			c-10.341-5.586-19.688-12.826-27.29-19.568c0.68-1.213,1.067-2.619,1.067-4.133c0-4.667-3.667-8.332-8.333-8.332
			c-1.539,0-2.967,0.4-4.192,1.102c-3.579-3.748-6.104-6.711-7.199-8.026C16.196,17.09,21.823,12.142,28.352,8.694z M28.333,38.332
			c0,2.833-2.167,5-5,5c-2.833,0-5-2.167-5-5s2.167-5,5-5C26.167,33.332,28.333,35.499,28.333,38.332z M3.546,54.424
			c-0.139-1.457-0.213-2.933-0.213-4.425c0-6.109,1.192-11.953,3.352-17.313c0.022,0.401,0.017,0.886-0.018,1.479
			c-0.167,3.167-0.167,4,0,4.833c0.167,0.668,0.167,1.334,0,3.834c-0.167,2.666,0.167,4.166,0.5,5.334
			C7.5,49.332,7.5,49.665,6.833,50.832c-1,1.833-2,2.667-3.167,3.5C3.627,54.361,3.586,54.394,3.546,54.424z M8.392,71.062
			c-2.047-4.015-3.53-8.358-4.342-12.927c0.539-0.493,1.078-0.899,1.617-1.303c1.333-1.001,2.667-2,4-4.5
			c1.333-2.167,1.167-3.334,0.667-5c-0.167-1-0.5-2.168-0.333-4.334c0.167-2.834,0.167-3.666,0-4.499
			c-0.167-0.667-0.167-1.335,0-4.167c0.126-3.042-0.326-4.542-1.429-5.745c0.458-0.879,0.941-1.742,1.453-2.588
			c1.305,1.582,3.524,4.186,6.568,7.381C15.589,34.758,15,36.464,15,38.331c0,4.667,3.667,8.335,8.333,8.335
			c1.935,0,3.696-0.632,5.097-1.703c7.665,6.813,17.138,14.146,27.667,19.861c-0.724,1.103-1.454,2.187-2.191,3.254L48.5,63.999
			c-0.167-0.167-0.667-0.333-1-0.333l-5.667,0.165l-5.667-1.832L31.5,58.831c-0.333-0.333-0.833-0.499-1.333-0.333l-2.173,0.494
			c-0.25-0.246-0.58-0.411-0.993-0.494l-1.667-0.166c-0.333,0-0.667,0-1,0.166l-5.167,2.5c-0.038,0-0.067,0.01-0.092,0.023
			L18.5,61.165c-0.276,0.11-0.497,0.277-0.663,0.479l-3.503,1.688c-0.333,0.166-0.5,0.333-0.667,0.499l-5,6.834
			C8.553,70.779,8.46,70.915,8.392,71.062z M22.534,87.662c0.044,0.003,0.088,0.003,0.133,0.003l5.5,0.667l1.797,3.783
			C27.344,90.859,24.858,89.364,22.534,87.662z M30.5,86.164c-0.333-0.499-0.833-0.999-1.333-0.999l-6-0.834l-8.605-4.059
			c-0.424-0.495-0.839-0.997-1.243-1.509l-1.485-6.766l4.333-5.832l3.212-1.606c-0.011,0.03-0.026,0.065-0.046,0.105l0.333-0.166
			c0.167,0,0.167-0.167,0.333-0.167l0.333-0.167c0.032-0.019,0.061-0.039,0.091-0.059l9.909-2.274l4.167,3
			c0.167,0,0.333,0.166,0.5,0.166l6.167,2.001c0.167,0,0.333,0,0.5,0L47,66.832l5.08,3.836c-0.932,1.293-1.873,2.562-2.824,3.802
			c-1.24-0.724-2.691-1.138-4.256-1.138c-4.667,0-8.333,3.666-8.333,8.333c0,1.98,0.662,3.779,1.778,5.195
			c-1.725,1.667-3.46,3.232-5.234,4.728L30.5,86.164z M50,81.665c0,2.834-2.167,5.001-5,5.001c-2.833,0-5-2.167-5-5.001
			c0-2.833,2.167-5,5-5C47.833,76.665,50,78.832,50,81.665z M62.333,87.999c-0.333,0.166-0.667,0.667-0.667,1l-1.16,6.466
			C57.127,96.25,53.609,96.666,50,96.666c-5.156,0-10.122-0.849-14.769-2.411c1.954-1.625,3.919-3.37,5.785-5.24
			c1.178,0.629,2.532,0.984,3.984,0.984c4.667,0,8.334-3.667,8.334-8.334c0-1.864-0.587-3.567-1.587-4.942
			c1.026-1.307,2.038-2.646,3.036-4.014l0.383,0.289l2.667,5.001c0.333,0.499,0.833,0.833,1.5,0.833h9.833l-1.5,4.833L62.333,87.999
			z M64.116,94.467l0.717-4.302l5.333-4.333c0.167-0.333,0.334-0.501,0.5-0.833l2.167-7.334c0.167-0.499,0.167-1-0.167-1.499
			c-0.333-0.335-0.833-0.668-1.333-0.668H60.334l-2.501-4.333c-0.167-0.167-0.333-0.333-0.5-0.5l-0.71-0.536
			c0.848-1.217,1.684-2.457,2.508-3.718c9.49,4.77,19.748,8.111,30.253,8.54C83.555,84.099,74.631,91.105,64.116,94.467z
			 M60.922,63.607c1.994-3.195,3.914-6.522,5.754-9.977c2.9,3.334,7.361,6.368,11.824,6.368c3.166,0,6-1.667,8-4.667
			c0.333-0.667,0.5-1.667,0.834-3.666c0.166-1.501,0.666-5,1.332-5.501c0,0,0.834,0,2.834,2.666c0.5,0.834,2,2.835,4,2.168
			c0.472-0.169,0.854-0.441,1.164-0.811c-0.031,7.735-1.971,15.042-5.369,21.473C80.785,71.587,70.475,68.366,60.922,63.607z"/>
	</g>
</g>
</svg>
